<svg width="30" height="20" viewBox="0 0 30 20" fill="none" xmlns="http://www.w3.org/2000/svg">
<rect y="12" width="29.2686" height="2.39999" rx="1" fill="white"/>
<rect y="17.6016" width="29.2686" height="2.39999" rx="1" fill="white"/>
<path d="M28.2686 8.79998C28.8208 8.79998 29.2775 8.34851 29.1749 7.80584C29.0209 6.99155 28.6782 6.19253 28.1546 5.43237C27.4191 4.36471 26.3412 3.39461 24.9823 2.57745C23.6234 1.7603 22.0101 1.1121 20.2346 0.669858C18.4591 0.227618 16.5561 -5.05142e-08 14.6343 0C12.7125 5.05142e-08 10.8095 0.227618 9.03398 0.669858C7.25847 1.1121 5.6452 1.7603 4.28628 2.57745C2.92736 3.39461 1.84941 4.36471 1.11397 5.43237C0.590344 6.19253 0.247649 6.99155 0.0936823 7.80584C-0.00892563 8.34851 0.447715 8.79998 1 8.79998L14.6343 8.79998H28.2686Z" fill="white"/>
<ellipse cx="15.7051" cy="6.00156" rx="0.713867" ry="0.399999" fill="#6A5F5F"/>
<ellipse cx="22.8438" cy="6.00156" rx="0.713867" ry="0.399999" fill="#6A5F5F"/>
<ellipse cx="20.7021" cy="1.99766" rx="0.713867" ry="0.399999" fill="#6A5F5F"/>
<ellipse cx="10.708" cy="1.99766" rx="0.713867" ry="0.399999" fill="#6A5F5F"/>
<ellipse cx="5.71094" cy="6.00156" rx="0.713867" ry="0.399999" fill="#6A5F5F"/>
</svg>
