<svg width="20" height="16" viewBox="0 0 20 16" fill="none" xmlns="http://www.w3.org/2000/svg">
<rect y="9.60156" width="20" height="1.91988" rx="0.95994" fill="white"/>
<rect y="14.082" width="20" height="1.91988" rx="0.95994" fill="white"/>
<path d="M19 7.03956C19.5523 7.03956 20.0095 6.58756 19.8999 6.04626C19.7819 5.46341 19.5603 4.89198 19.2388 4.34564C18.7362 3.49156 17.9997 2.71552 17.0711 2.06184C16.1425 1.40816 15.0401 0.889626 13.8268 0.535855C12.6136 0.182084 11.3132 -4.04089e-08 10 0C8.68678 4.04089e-08 7.38642 0.182084 6.17317 0.535855C4.95991 0.889626 3.85752 1.40816 2.92893 2.06184C2.00035 2.71552 1.26375 3.49156 0.761204 4.34564C0.439732 4.89198 0.218059 5.46341 0.100051 6.04626C-0.00954665 6.58756 0.447715 7.03956 1 7.03956L10 7.03956H19Z" fill="white"/>
<ellipse cx="10.7317" cy="4.80045" rx="0.487805" ry="0.31998" fill="#6A5F5F"/>
<ellipse cx="15.6096" cy="4.80045" rx="0.487805" ry="0.31998" fill="#6A5F5F"/>
<ellipse cx="14.1463" cy="1.59732" rx="0.487805" ry="0.31998" fill="#6A5F5F"/>
<ellipse cx="7.31691" cy="1.59732" rx="0.487805" ry="0.31998" fill="#6A5F5F"/>
<ellipse cx="3.9026" cy="4.80045" rx="0.487805" ry="0.31998" fill="#6A5F5F"/>
</svg>
