<svg width="9" height="8" viewBox="0 0 9 8" fill="none" xmlns="http://www.w3.org/2000/svg">
<rect y="4.22656" width="8.80713" height="0.845432" rx="0.422716" fill="white"/>
<rect y="6.19922" width="8.80713" height="0.845432" rx="0.422716" fill="white"/>
<path d="M7.80713 3.09992C8.35941 3.09992 8.82076 2.63307 8.58724 2.13258C8.55277 2.05871 8.51432 1.98568 8.47193 1.91363C8.25063 1.53753 7.92626 1.1958 7.51735 0.907944C7.10845 0.620091 6.623 0.391752 6.08874 0.235967C5.55447 0.0801817 4.98185 -1.77943e-08 4.40356 0C3.82528 1.77943e-08 3.25266 0.0801817 2.71839 0.235967C2.18413 0.391753 1.69868 0.620091 1.28977 0.907945C0.880865 1.1958 0.556501 1.53753 0.335201 1.91363C0.292809 1.98568 0.254357 2.05871 0.219893 2.13258C-0.0136264 2.63307 0.447715 3.09992 1 3.09992L4.40356 3.09992H7.80713Z" fill="white"/>
<ellipse cx="4.72579" cy="2.11356" rx="0.214808" ry="0.140905" fill="#6A5F5F"/>
<ellipse cx="6.87374" cy="2.11356" rx="0.214808" ry="0.140905" fill="#6A5F5F"/>
<ellipse cx="6.22946" cy="0.703405" rx="0.214808" ry="0.140905" fill="#6A5F5F"/>
<ellipse cx="3.22213" cy="0.703405" rx="0.214808" ry="0.140905" fill="#6A5F5F"/>
<ellipse cx="1.71847" cy="2.11356" rx="0.214808" ry="0.140905" fill="#6A5F5F"/>
</svg>
