<svg width="36" height="31" viewBox="0 0 36 31" fill="none" xmlns="http://www.w3.org/2000/svg">
<path d="M12.5649 29.1051C13.8852 29.8645 15.4526 30.0697 16.9238 29.6757C18.395 29.2817 19.6501 28.3207 20.4142 27.0032L27.7054 14.392C27.9118 14.0347 28.0457 13.6402 28.0996 13.2311C28.1534 12.8221 28.1261 12.4064 28.0192 12.0079C27.9122 11.6093 27.7278 11.2358 27.4765 10.9086C27.2251 10.5814 26.9117 10.307 26.5542 10.101L24.3738 8.8451M12.2771 28.9394C11.0776 28.2446 10.2027 27.1022 9.84462 25.763C9.48652 24.4238 9.67443 22.9973 10.3671 21.7965L15.8878 12.2029C16.3019 11.4821 16.4132 10.6265 16.1974 9.82377C15.9816 9.02102 15.4562 8.33662 14.7366 7.92062L10.7247 5.60943C10.3689 5.40173 9.9755 5.26649 9.5672 5.21152C9.15889 5.15654 8.74375 5.18292 8.34569 5.28912C7.94762 5.39532 7.57452 5.57926 7.24786 5.83032C6.92121 6.08138 6.64748 6.39461 6.44244 6.75195L1.96832 14.5664C1.00687 16.2432 0.748808 18.2326 1.2506 20.0992C1.7524 21.9658 2.97319 23.5576 4.64581 24.5263L7.75066 26.3229L12.2771 28.9394Z" stroke="black" stroke-width="2" stroke-linecap="round" stroke-linejoin="round"/>
<path d="M32.1187 6.55956C32.7735 6.93554 33.3477 7.43705 33.8084 8.03535C34.269 8.63365 34.6071 9.31698 34.8031 10.0462C34.9992 10.7754 35.0495 11.5361 34.951 12.2847C34.8525 13.0334 34.6073 13.7552 34.2293 14.4089L29.0836 23.2874C28.666 24.0076 27.98 24.5331 27.1758 24.7489C26.3717 24.9646 25.5148 24.8531 24.7927 24.4386L22.6123 23.174M12.9053 6.89098L14.1961 4.65828C15.1682 2.97738 16.7679 1.75118 18.6437 1.24913C20.5194 0.747072 22.5178 1.01023 24.1996 1.98079L27.3044 3.77741L31.8309 6.39385C30.6291 5.70191 29.2017 5.51533 27.8624 5.87509C26.5231 6.23486 25.3813 7.11155 24.688 8.31258L17.1178 21.3686C16.7018 22.0883 16.0174 22.6136 15.2146 22.8294C14.4119 23.0453 13.5563 22.9339 12.8355 22.5199L10.6464 21.2553" stroke="black" stroke-width="2" stroke-linecap="round" stroke-linejoin="round"/>
</svg>
