<svg width="23" height="36" viewBox="0 0 23 36" fill="none" xmlns="http://www.w3.org/2000/svg">
<path d="M1.54611 0.0853004C0.9335 0.301563 0.430285 0.76897 0.131273 1.41079C0.00729297 1.67588 0 2.45024 0 17.8398V33.9898L0.19691 34.3874C0.422992 34.8478 0.860571 35.2804 1.33461 35.5036L1.67738 35.6641H11.4864H21.2955L21.6382 35.5036C22.1123 35.2804 22.5499 34.8478 22.7759 34.3874L22.9729 33.9898V21.7325C22.9729 9.56599 22.9729 9.46833 22.827 9.33578C22.6155 9.14044 22.2654 9.11952 22.0175 9.28695C21.8789 9.38461 21.8789 9.61483 21.8424 21.586L21.806 33.7875L21.6091 34.0735C21.507 34.227 21.2955 34.4083 21.135 34.4851C20.8652 34.6107 20.5589 34.6176 11.4864 34.6176C2.41397 34.6176 2.10767 34.6107 1.83783 34.4851C1.67738 34.4083 1.46589 34.227 1.36379 34.0735L1.16688 33.7875V17.8398V1.89214L1.36379 1.60612C1.46589 1.45264 1.67738 1.27126 1.83783 1.19452C2.10767 1.06895 2.41397 1.06197 11.4864 1.06197C20.5589 1.06197 20.8652 1.06895 21.135 1.19452C21.2955 1.27126 21.507 1.45264 21.6091 1.60612L21.806 1.88517L21.8424 4.98959L21.8789 8.08703L22.0539 8.21958C22.3457 8.4498 22.7905 8.33818 22.9364 8.00332C22.9947 7.87077 23.0093 6.90805 22.9947 4.7524L22.9729 1.68983L22.7759 1.29219C22.5499 0.831757 22.1123 0.399231 21.6382 0.175991L21.2955 0.0155373L11.5594 0.00158691C3.39852 -0.00539017 1.77948 0.008564 1.54611 0.0853004Z" fill="white"/>
<path d="M8.46745 2.22171C8.32159 2.33333 8.27783 2.42402 8.27783 2.63331C8.27783 2.84259 8.32159 2.93329 8.46745 3.04491C8.65707 3.18443 8.74458 3.19141 10.9033 3.19141C13.062 3.19141 13.1495 3.18443 13.3392 3.04491C13.485 2.93329 13.5288 2.84259 13.5288 2.63331C13.5288 2.42402 13.485 2.33333 13.3392 2.22171C13.1495 2.08219 13.062 2.07521 10.9033 2.07521C8.74458 2.07521 8.65707 2.08219 8.46745 2.22171Z" fill="white"/>
<path d="M14.4983 2.17719C14.1993 2.3795 14.2212 2.86086 14.5421 3.09805C14.688 3.20967 15.0016 3.20967 15.2349 3.112C15.585 2.95852 15.6215 2.4074 15.2933 2.17021C15.1255 2.04464 14.688 2.05161 14.4983 2.17719Z" fill="white"/>
<path d="M2.11592 4.48071L1.93359 4.64814V17.024V29.3998L2.08675 29.5881L2.23261 29.7695H3.6912C5.04769 29.7695 5.14979 29.7626 5.28836 29.63C5.44151 29.4835 5.47798 29.1486 5.36129 28.9324C5.2446 28.7301 4.87995 28.6533 3.96833 28.6533H3.10047V18.4332V8.21299H11.4874H19.8743V18.4332V28.6533H13.3544C8.78899 28.6533 6.77613 28.6743 6.60839 28.7301C6.22186 28.8626 6.10517 29.3231 6.38231 29.6161L6.53546 29.7695H13.6388H20.7422L20.888 29.5881L21.0412 29.3998V17.024V4.64814L20.8589 4.48071L20.6838 4.3063H11.4874H2.29095L2.11592 4.48071ZM5.28836 6.25965V7.09679H4.19442H3.10047V6.25965V5.4225H4.19442H5.28836V6.25965ZM19.8743 6.25965V7.09679H13.1648H6.45524V6.25965V5.4225H13.1648H19.8743V6.25965Z" fill="white"/>
<path d="M7.19825 9.97833C7.09615 10.076 7.0378 10.2295 7.0378 10.376C7.0378 10.5853 7.18366 10.7527 8.53286 12.0503C9.45907 12.9432 10.0279 13.5432 10.0279 13.6269C10.0279 13.7036 9.86018 13.9199 9.66327 14.1083L9.29863 14.4501L7.70876 12.9362C6.29392 11.5898 6.08972 11.4224 5.88551 11.4224C5.56462 11.4224 5.28749 11.6875 5.28749 11.9875C5.28749 12.1828 5.46982 12.3851 6.87007 13.7385L8.45264 15.2593L8.09528 15.6081C7.89838 15.8035 7.67229 15.957 7.59207 15.957C7.49726 15.957 6.88465 15.4268 5.94386 14.5268C4.53631 13.1874 4.42692 13.0967 4.17896 13.0967C3.8289 13.0967 3.61011 13.313 3.61011 13.6408C3.61011 13.8641 3.73409 14.0036 5.04682 15.2663C5.83446 16.0337 6.60752 16.7383 6.76796 16.8429C7.19096 17.122 7.81815 17.1499 8.31407 16.9057L8.67872 16.7243L9.18923 17.2127L9.69245 17.694L8.36513 18.9777C6.95758 20.338 6.81172 20.5403 6.80443 21.1263C6.80443 21.6147 6.9357 21.9077 7.28577 22.2216C7.77439 22.6472 8.50369 22.7309 9.10901 22.4309C9.18923 22.389 9.86018 21.7891 10.5968 21.0984L11.9241 19.8357L13.3316 21.1682C14.6517 22.4239 14.7538 22.5007 15.0965 22.5704C15.4685 22.6472 15.9279 22.5983 16.1905 22.4658C16.4603 22.3193 16.8031 21.9216 16.9198 21.6147C17.0583 21.238 17.0583 21.1612 16.9125 20.6938C16.8031 20.352 16.6791 20.2055 15.4539 19.0265L14.112 17.7289L14.7246 17.1499L15.3372 16.5709L15.8404 16.5499C16.8104 16.522 17.8533 15.8802 18.5607 14.8687C19.6182 13.3548 19.3775 11.6317 18.021 10.948C17.6855 10.7806 17.5689 10.7666 16.9198 10.7666C15.8331 10.7666 15.0382 11.1085 14.1557 11.9386C13.4702 12.5944 12.9889 13.6339 13.1347 14.178C13.1785 14.3454 13.1129 14.4292 12.5367 14.9873L11.8876 15.6081L11.3698 15.1128L10.8447 14.6175L11.0198 14.3245C11.2386 13.9618 11.2531 13.3967 11.0562 12.9921C10.9687 12.8177 10.3561 12.1758 9.39343 11.262C7.98589 9.92949 7.84732 9.81788 7.61395 9.81788C7.43892 9.81788 7.30035 9.86671 7.19825 9.97833ZM17.5251 11.9805C17.6564 12.0572 17.8241 12.2177 17.9116 12.3433C18.3784 13.0548 17.598 14.6524 16.5187 15.2175C16.1321 15.4198 15.8915 15.4477 15.2205 15.3919C14.9142 15.371 14.9069 15.371 14.0901 16.1523L13.266 16.9336L13.018 16.6895L12.7701 16.4453L13.514 15.7267C14.3308 14.9245 14.4329 14.757 14.3381 14.3524C14.1266 13.4595 15.0747 12.3223 16.3363 11.9386C16.7812 11.8061 17.248 11.8201 17.5251 11.9805ZM15.7967 20.9938C15.8842 21.1473 15.7748 21.3635 15.5633 21.4752C15.4174 21.5449 15.1549 21.3077 12.4419 18.7195L9.48095 15.8942L9.7362 15.643L9.98416 15.3989L12.8576 18.1335C14.4329 19.6404 15.7602 20.931 15.7967 20.9938ZM10.0644 20.0101C9.50283 20.5543 8.88293 21.1194 8.68602 21.2659C8.36513 21.517 8.32137 21.531 8.17551 21.4472C7.81815 21.217 7.89838 21.0984 9.26945 19.7869L10.5749 18.5382L10.8301 18.7823L11.0854 19.0265L10.0644 20.0101Z" fill="white"/>
<path d="M6.67348 24.0504C6.46928 24.2457 6.47657 24.6783 6.68077 24.8596C6.82663 24.9852 7.01625 24.9922 11.4868 24.9922C15.9574 24.9922 16.1471 24.9852 16.2929 24.8596C16.4971 24.6783 16.5044 24.2457 16.3002 24.0504C16.1543 23.9109 16.0595 23.9109 11.4868 23.9109C6.91415 23.9109 6.81934 23.9109 6.67348 24.0504Z" fill="white"/>
<path d="M6.89017 25.9131C6.51094 26.0526 6.38696 26.5689 6.67138 26.8409C6.81724 26.9805 6.91205 26.9805 11.4847 26.9805C16.0574 26.9805 16.1522 26.9805 16.2981 26.8409C16.5023 26.6456 16.495 26.2131 16.2908 26.0317C16.145 25.9061 15.948 25.8992 11.565 25.8852C9.05619 25.8782 6.94852 25.8922 6.89017 25.9131Z" fill="white"/>
<path d="M11.3038 30.2913C11.2673 30.3052 11.1141 30.3331 10.9683 30.3541C10.5745 30.4169 10.0712 30.7726 9.8014 31.1703C9.4951 31.6237 9.42217 32.3702 9.62637 32.8864C10.2682 34.491 12.704 34.491 13.3458 32.8864C13.55 32.3702 13.4771 31.6237 13.1708 31.1773C12.9447 30.8354 12.5654 30.5355 12.2154 30.4099C11.9966 30.3331 11.4059 30.2564 11.3038 30.2913ZM11.7413 31.4424C11.7924 31.4424 11.9382 31.54 12.0622 31.6656C12.2445 31.847 12.2883 31.9447 12.2883 32.1958C12.2883 32.4539 12.2445 32.5446 12.0403 32.7399C11.8361 32.9353 11.734 32.9771 11.4861 32.9771C11.2381 32.9771 11.136 32.9353 10.9318 32.7399C10.7276 32.5446 10.6839 32.4539 10.6839 32.1958C10.6839 31.9447 10.7276 31.847 10.9099 31.6726C11.1214 31.4563 11.3548 31.3656 11.5444 31.4145C11.6028 31.4284 11.683 31.4424 11.7413 31.4424Z" fill="white"/>
</svg>
