<svg width="54" height="44" viewBox="0 0 54 44" fill="none" xmlns="http://www.w3.org/2000/svg">
<path d="M3.09585 1.09331C1.12576 2.77706 0 6.00425 0 10.2136C0 14.1424 1.03195 16.6212 3.00203 17.4631L4.1278 17.9308L3.79945 30.2316C3.4711 41.5034 3.51801 42.5323 4.26852 42.813C5.67572 43.3274 6.56695 42.2985 6.52004 40.1002C6.52004 38.9777 6.42623 33.5523 6.33242 28.0333L6.1917 18.0244L7.41127 17.276C9.47517 16.06 10.3195 13.7682 10.3195 9.51207C10.2726 4.78821 8.91229 1.56102 6.52004 0.578827C4.54996 -0.26305 4.78449 -0.26305 3.09585 1.09331Z" fill="#EEEEEE"/>
<path d="M44.2329 2.02873C43.9045 3.75925 43.67 10.4943 43.8107 13.7682C43.8576 15.4988 45.1241 17.2293 46.4375 17.4164C47.3287 17.5567 47.3756 17.9308 47.3756 29.9042C47.3756 36.686 47.5632 42.5323 47.7509 42.813C48.3138 43.7016 49.3926 43.5613 49.9086 42.5323C50.2369 42.0179 50.2838 37.3408 50.0962 29.7639L49.8148 17.8373L51.2689 17.3228C53.5673 16.5277 53.8957 15.3584 53.8018 8.76374C53.6611 1.04654 52.8637 -1.80648 52.8168 5.16238L52.7699 10.2136H51.1282H49.4864V5.30269C49.4864 1.23362 49.3457 0.39175 48.7828 0.39175C48.2199 0.39175 48.0792 1.23362 48.0792 5.30269V10.2136H46.4375H44.8427L44.7019 5.16238C44.6081 1.42071 44.4674 0.625603 44.2329 2.02873Z" fill="#EEEEEE"/>
<path d="M23.4067 5.53725C14.9635 7.26778 9.05323 15.6865 10.5073 23.8714C11.7738 30.9806 16.699 35.9383 24.0165 37.4818C30.4896 38.8381 38.4169 34.6288 41.2782 28.3147C45.2184 19.8024 40.856 9.3257 32.1783 6.23882C29.6922 5.39694 25.7051 5.06954 23.4067 5.53725Z" fill="#EEEEEE"/>
</svg>
