<svg width="39" height="36" viewBox="0 0 39 36" fill="none" xmlns="http://www.w3.org/2000/svg">
<g filter="url(#filter0_d_1252_929)">
<path d="M16.0282 0.568636C15.4189 1.1779 15.4189 1.1779 15.5374 2.27796L15.6389 3.3611L14.9112 3.54726C12.8465 4.07191 11.1879 5.00273 9.64784 6.54281C7.70157 8.47215 6.75383 10.5538 6.4492 13.5663L6.24611 15.3771L5.24759 15.4279C4.50294 15.4618 4.18138 15.5633 4.04599 15.7664C3.89367 16.0203 4.07984 16.2741 5.21375 17.4249L6.56767 18.7789H9.64784H12.728L12.7788 22.1467C12.8295 25.9039 12.8803 26.09 14.1158 26.8178C14.6743 27.1393 14.9958 27.1562 23.9148 27.1562C32.8337 27.1562 33.1553 27.1393 33.7138 26.8178C34.0353 26.6316 34.4415 26.2593 34.6446 26.0054C34.9831 25.5315 35 25.3454 35 20.2174C35 15.0894 34.9831 14.9033 34.6446 14.4294C33.9338 13.4817 33.3414 13.2786 30.9382 13.2278L28.7381 13.1601L28.4335 11.8739C28.0104 10.0292 27.1134 8.31983 25.7933 6.89821C24.1856 5.17196 22.4593 4.12268 20.2423 3.54726L19.5145 3.3611L19.5653 2.19334C19.5992 1.1102 19.5653 0.974812 19.1422 0.551712C18.7699 0.179382 18.4822 0.0947628 17.6698 0.0270672C16.6713 -0.0406284 16.6205 -0.0237045 16.0282 0.568636ZM18.0591 1.27944C18.2622 1.36406 18.3299 1.61792 18.3299 2.31181V3.2257L17.619 3.17493L16.8913 3.12416L16.8405 2.29488C16.7728 1.27944 17.179 0.940964 18.0591 1.27944ZM19.7684 4.81656C23.3055 5.71353 26.2672 8.55677 27.1303 11.84C27.2319 12.2631 27.3503 12.737 27.4011 12.8893C27.4857 13.177 27.1134 13.1939 21.3423 13.1939C14.9112 13.2109 14.3696 13.2616 13.5573 13.9894C13.3711 14.1586 13.1003 14.5479 12.9649 14.8356L12.7449 15.3941H10.2063H7.66773V14.2432C7.66773 11.7554 8.63239 9.52143 10.5448 7.60902C11.9495 6.1874 13.3373 5.35813 15.1143 4.88426C16.4851 4.51193 18.4483 4.47808 19.7684 4.81656ZM17.3144 14.8017C17.3144 15.2417 16.7051 16.291 16.0959 16.8665C15.5882 17.3573 14.5219 17.9327 14.0988 17.9327C13.9973 17.9327 13.9296 17.4588 13.9296 16.7649C13.9296 15.7495 13.9804 15.5125 14.3696 15.0725C14.7927 14.5817 14.8604 14.5479 16.062 14.5479C17.0775 14.5479 17.3144 14.5986 17.3144 14.8017ZM29.3982 15.4618C29.889 17.1542 31.3783 18.6266 33.003 19.0327L33.8153 19.2358L33.8661 20.2851C33.9169 21.2667 33.8999 21.3175 33.5107 21.3175C33.2907 21.3175 32.6306 21.5544 32.0552 21.8421C30.7352 22.5021 29.7705 23.653 29.3812 25.0577L29.1104 26.0562H23.8979H18.7022L18.5837 25.4131C18.2283 23.5176 16.4174 21.6729 14.5727 21.3852L13.9296 21.2667V20.2851V19.3035L14.6404 19.1004C16.4851 18.6096 17.9575 17.2219 18.4652 15.5464L18.753 14.5479H23.9486H29.1443L29.3982 15.4618ZM33.4599 15.0725C33.8492 15.5125 33.8999 15.7495 33.8999 16.7649C33.8999 17.4588 33.8322 17.9327 33.7307 17.9327C33.3076 17.9327 32.2414 17.3573 31.7337 16.8665C31.1752 16.3249 30.8367 15.8002 30.5151 14.971L30.3459 14.5479H31.6829C32.9691 14.5479 33.0368 14.5648 33.4599 15.0725ZM12.7449 17.0018V17.4249H9.81708C6.90615 17.4249 6.8723 17.4249 6.48305 17.0018L6.09379 16.5787H9.4109H12.7449V17.0018ZM14.9112 22.7729C15.6897 23.0945 16.5698 23.9238 16.9929 24.7361C17.5344 25.8023 17.4837 25.8869 16.062 25.8869C14.8604 25.8869 14.7927 25.8531 14.3696 25.3623C13.9804 24.9223 13.9296 24.6853 13.9296 23.6699C13.9296 22.976 13.9973 22.5021 14.0988 22.5021C14.2004 22.5021 14.5558 22.6206 14.9112 22.7729ZM33.8999 23.6699C33.8999 24.6853 33.8492 24.9223 33.4599 25.3623C33.0368 25.87 32.9691 25.8869 31.6998 25.8869H30.3797L30.5659 25.2777C30.8198 24.4653 31.9537 23.196 32.7999 22.8237C33.8661 22.3329 33.8999 22.3668 33.8999 23.6699Z" fill="white"/>
<path d="M11.358 7.76239C9.95329 9.06554 8.49783 11.8242 8.76861 12.7042C8.93785 13.2119 9.66558 13.1273 9.8856 12.5519C10.6472 10.6733 11.2734 9.64096 12.2211 8.72706C13.2873 7.72854 13.4058 7.49161 13.0504 7.1362C12.6781 6.76387 12.2719 6.91619 11.358 7.76239Z" fill="white"/>
<path d="M23.2387 15.7843C23.2387 16.2751 23.171 16.3597 22.5279 16.5797C22.054 16.7489 21.6648 17.0366 21.4109 17.4259C20.5816 18.6444 21.2924 20.4891 22.6802 20.743C23.2387 20.8445 23.2387 20.8445 23.2387 21.8431C23.2387 22.8077 23.2218 22.8416 22.9002 22.6723C22.6971 22.5708 22.4602 22.3 22.3586 22.0631C22.2063 21.7584 22.0371 21.6569 21.5971 21.6569C21.1232 21.6569 21.0386 21.7246 21.0386 22.0631C21.0386 22.7231 21.7494 23.5862 22.5279 23.857C23.171 24.077 23.2387 24.1616 23.2387 24.6524C23.2387 25.194 23.2556 25.2109 23.9157 25.2109C24.5757 25.2109 24.5926 25.194 24.5926 24.6524C24.5926 24.1616 24.6603 24.077 25.3034 23.857C26.1665 23.5524 26.7927 22.7062 26.7927 21.8769C26.7927 20.8445 26.065 19.863 25.1511 19.6937L24.5926 19.5922V18.5936C24.5926 17.629 24.6095 17.5951 24.9311 17.7644C25.1342 17.8659 25.3711 18.1367 25.4727 18.3736C25.625 18.6783 25.7942 18.7798 26.2342 18.7798C26.7081 18.7798 26.7927 18.7121 26.7927 18.3736C26.7927 17.7136 26.0819 16.8505 25.3034 16.5797C24.6603 16.3597 24.5926 16.2751 24.5926 15.7843C24.5926 15.2427 24.5757 15.2258 23.9157 15.2258C23.2556 15.2258 23.2387 15.2427 23.2387 15.7843ZM23.2387 18.6106C23.2387 19.1691 23.171 19.626 23.0695 19.626C22.7987 19.626 22.2233 18.9829 22.2233 18.6952C22.2233 18.4413 22.9341 17.5951 23.1541 17.5951C23.2048 17.5951 23.2387 18.0521 23.2387 18.6106ZM25.2696 21.1492C25.4557 21.3353 25.6081 21.5723 25.6081 21.6738C25.6081 21.9954 25.2696 22.4862 24.9311 22.6723C24.6095 22.8416 24.5926 22.7908 24.5926 21.8261C24.5926 20.743 24.728 20.6076 25.2696 21.1492Z" fill="white"/>
</g>
<defs>
<filter id="filter0_d_1252_929" x="0" y="0" width="39" height="35.1562" filterUnits="userSpaceOnUse" color-interpolation-filters="sRGB">
<feFlood flood-opacity="0" result="BackgroundImageFix"/>
<feColorMatrix in="SourceAlpha" type="matrix" values="0 0 0 0 0 0 0 0 0 0 0 0 0 0 0 0 0 0 127 0" result="hardAlpha"/>
<feOffset dy="4"/>
<feGaussianBlur stdDeviation="2"/>
<feComposite in2="hardAlpha" operator="out"/>
<feColorMatrix type="matrix" values="0 0 0 0 0 0 0 0 0 0 0 0 0 0 0 0 0 0 0.25 0"/>
<feBlend mode="normal" in2="BackgroundImageFix" result="effect1_dropShadow_1252_929"/>
<feBlend mode="normal" in="SourceGraphic" in2="effect1_dropShadow_1252_929" result="shape"/>
</filter>
</defs>
</svg>
