<svg width="35" height="25" viewBox="0 0 35 25" fill="none" xmlns="http://www.w3.org/2000/svg">
<path d="M17.1544 1.09189C16.6686 1.28348 16.1691 1.78299 15.9844 2.2825C15.7996 2.78201 15.7928 3.4868 15.9707 3.95894L16.1007 4.30107L15.957 4.32845C14.6158 4.58162 13.87 4.75953 13.1926 4.97849L12.3783 5.2522L12.0567 5.13588C11.8788 5.07429 11.7351 4.98534 11.7351 4.93744C11.7351 4.74585 11.4409 4.21212 11.1808 3.93157C11.0303 3.76051 10.7292 3.54154 10.5308 3.44575C10.0997 3.24047 9.42229 3.15836 9.05279 3.261C8.83382 3.32258 8.78592 3.3089 8.65591 3.17204C7.92375 2.39198 6.24047 2.39198 5.50831 3.17204C5.3783 3.3089 5.3304 3.32258 5.11144 3.261C4.76931 3.1652 4.10557 3.23363 3.7087 3.40469C3.53763 3.47996 3.25709 3.66471 3.09286 3.81525C2.81232 4.07527 2.42913 4.72532 2.42913 4.93744C2.42913 4.99218 2.30596 5.06745 2.14174 5.11535C1.54643 5.29325 1.02639 5.7654 0.773216 6.34702C0.608993 6.73021 0.540567 7.40078 0.636364 7.73607C0.697947 7.95503 0.684262 8.00293 0.54741 8.13294C0.465298 8.20821 0.307918 8.43402 0.198436 8.63245C0.0136852 8.9609 0 9.04301 0 9.70675C0 10.3705 0.0136852 10.4526 0.198436 10.781C0.307918 10.9795 0.465298 11.2053 0.54741 11.2805C0.684262 11.4106 0.697947 11.4585 0.636364 11.6774C0.458456 12.3206 0.766373 13.3196 1.28641 13.7918C1.53959 14.0176 2.16227 14.3597 2.33333 14.3597C2.37439 14.3597 2.44966 14.4897 2.49071 14.6471C2.57967 14.9413 2.88074 15.4272 3.06549 15.5777C3.14761 15.653 3.14761 15.7146 3.06549 16.0567C2.84653 16.9668 2.70283 18.2737 2.65494 19.7107L2.61388 21.2023H1.97067C1.21114 21.2023 1.06061 21.2913 1.06061 21.7498C1.06061 22.1603 1.23167 22.2972 1.74487 22.2972H2.15543V22.8104C2.15543 23.741 2.57967 24.4526 3.35288 24.8289L3.69501 25H18.0303H32.3656L32.7009 24.8358C33.1183 24.6305 33.5015 24.2405 33.7136 23.8162C33.8299 23.5767 33.8778 23.3441 33.8915 22.8993L33.9189 22.2972H34.3226C34.8289 22.2972 35 22.1603 35 21.7498C35 21.2845 34.8495 21.2023 34.042 21.2023H33.3646V19.7791C33.3715 17.9179 33.2414 16.8915 32.8104 15.3587C31.4555 10.5484 27.6989 6.60704 22.9433 5.01955C22.0401 4.71848 20.5826 4.3695 20.2131 4.3695C19.9599 4.3695 19.9462 4.32845 20.0899 3.9521C20.3979 3.15152 20.1926 2.15934 19.6041 1.56403C18.9951 0.961876 17.9961 0.770283 17.1544 1.09189ZM18.564 2.24829C19.4536 2.78886 19.0704 4.16422 18.0303 4.16422C17.4487 4.16422 17.0039 3.71945 17.0039 3.13783C17.0039 2.76833 17.1887 2.43988 17.4966 2.24829C17.6334 2.16618 17.8456 2.11144 18.0303 2.11144C18.2151 2.11144 18.4272 2.16618 18.564 2.24829ZM7.50635 3.81525C7.59531 3.84946 7.74585 3.95894 7.8348 4.06158C8.42326 4.71848 8.48485 4.74585 9.00489 4.50635C9.40176 4.32845 9.66178 4.33529 10.0244 4.52688C10.3734 4.71163 10.6403 5.14272 10.6403 5.5259C10.6471 5.90909 10.9071 6.14858 11.3109 6.14858C11.6461 6.14858 12.0841 6.42913 12.262 6.76442C12.4536 7.12708 12.4604 7.3871 12.2825 7.78397C12.0841 8.21505 12.1046 8.38612 12.392 8.65298C12.522 8.78299 12.6588 8.88563 12.6862 8.88563C12.8025 8.88563 13.0352 9.43304 13.0352 9.70675C13.0352 10.0831 12.9599 10.2199 12.5152 10.6373C12.0978 11.0342 12.0704 11.1642 12.2825 11.6295C12.4536 12.0127 12.4536 12.259 12.2757 12.6217C12.1046 12.9844 11.7898 13.1896 11.3177 13.2444C10.8524 13.2991 10.6403 13.4907 10.6403 13.8671C10.6403 14.2708 10.3803 14.7019 10.0244 14.8866C9.66178 15.0782 9.40176 15.085 9.00489 14.9071C8.53959 14.695 8.40958 14.7224 8.01271 15.1398C7.59531 15.5777 7.45846 15.6598 7.08211 15.6598C6.70577 15.6598 6.56891 15.5777 6.15152 15.1398C5.75464 14.7224 5.63148 14.695 5.13196 14.914C4.73509 15.0919 4.37928 15.0577 4.0303 14.825C3.74976 14.6403 3.52395 14.2092 3.52395 13.8671C3.52395 13.5386 3.25024 13.2649 2.92864 13.2649C2.59335 13.2649 2.28543 13.1144 2.0391 12.8338C1.75171 12.5054 1.69013 12.1632 1.84066 11.7595C2.09384 11.1232 2.08016 11.0411 1.65591 10.6442C1.2043 10.2199 1.12903 10.0831 1.12903 9.70675C1.12903 9.43304 1.36168 8.88563 1.47801 8.88563C1.50538 8.88563 1.64223 8.78299 1.77224 8.65298C2.05963 8.38612 2.08016 8.21505 1.88172 7.78397C1.71065 7.40078 1.71065 7.15445 1.88172 6.80547C2.05963 6.44282 2.38807 6.22385 2.84653 6.16911C3.31183 6.11437 3.52395 5.92278 3.52395 5.54643C3.52395 5.14272 3.78397 4.71163 4.13978 4.52688C4.50244 4.33529 4.76246 4.32845 5.15934 4.50635C5.62463 4.71848 5.75464 4.6911 6.15152 4.2737C6.34311 4.06843 6.56207 3.86999 6.63734 3.82893C6.80841 3.73998 7.28739 3.73314 7.50635 3.81525ZM19.6725 5.47116C25.0371 6.05963 29.7517 9.8915 31.4761 15.0508C32.044 16.7615 32.2561 18.3011 32.2082 20.3265L32.1877 21.2023H18.0235H3.86608L3.85239 20.3607C3.83187 18.739 3.92766 17.5689 4.16031 16.5494L4.24927 16.173L4.51613 16.1935C4.66667 16.2072 4.91984 16.1867 5.07722 16.1525C5.3304 16.0909 5.3783 16.1046 5.50831 16.2414C5.59042 16.3236 5.80938 16.4809 6.00782 16.5904C6.33627 16.7752 6.41838 16.7889 7.08211 16.7889C7.86217 16.7889 8.11535 16.7067 8.60117 16.2893C8.77908 16.1388 8.86804 16.1046 8.99804 16.1456C9.60704 16.3236 10.5171 16.0909 11.0303 15.6325C11.3451 15.3451 11.7351 14.7019 11.7351 14.4692C11.7351 14.4076 11.7761 14.3597 11.824 14.3597C12.002 14.3597 12.6246 14.0176 12.8915 13.7781C13.4047 13.3128 13.7058 12.3206 13.5279 11.6774C13.4663 11.4585 13.48 11.4106 13.6168 11.2805C13.6989 11.2053 13.8563 10.9795 13.9658 10.781C14.1505 10.4526 14.1642 10.3705 14.1642 9.70675C14.1642 9.04301 14.1505 8.9609 13.9658 8.63245C13.8563 8.43402 13.6989 8.20821 13.6168 8.13294C13.48 8.00293 13.4663 7.95503 13.5279 7.73607C13.6168 7.42815 13.5552 6.75073 13.4184 6.41545L13.3157 6.16911L13.911 5.98436C15.6901 5.43011 17.7087 5.2522 19.6725 5.47116ZM32.7419 22.7351C32.7419 23.2346 32.5846 23.5357 32.1945 23.7615C31.955 23.9052 31.9345 23.9052 18.3382 23.9257C10.8524 23.9394 4.56403 23.9257 4.36559 23.9052C3.70186 23.8231 3.35288 23.4467 3.27761 22.7214L3.22972 22.2972H17.9892H32.7419V22.7351Z" fill="white"/>
<path d="M4.43397 6.60102C4.00973 6.85419 3.79761 7.25107 3.79761 7.79163C3.79761 8.63327 4.32449 9.16016 5.16613 9.16016C6.00777 9.16016 6.53466 8.63327 6.53466 7.79163C6.53466 6.94999 6.00777 6.42311 5.15929 6.42311C4.81032 6.42311 4.65978 6.45732 4.43397 6.60102ZM5.3372 7.79163C5.3372 7.9148 5.29614 7.96954 5.17982 7.98323C5.01559 8.0106 4.9198 7.86006 4.98822 7.68215C5.00875 7.62057 5.09086 7.58635 5.17982 7.60004C5.29614 7.61372 5.3372 7.66847 5.3372 7.79163Z" fill="white"/>
<path d="M6.65782 9.28349L3.79761 12.1369V12.4311C3.79761 12.8143 3.97552 12.9922 4.3587 12.9922H4.65293L7.50631 10.132L10.3665 7.2786V6.98437C10.3665 6.78593 10.3255 6.65592 10.2297 6.56012C10.1339 6.46433 10.0039 6.42327 9.80543 6.42327H9.51119L6.65782 9.28349Z" fill="white"/>
<path d="M8.266 10.433C7.84176 10.6862 7.62964 11.0831 7.62964 11.6237C7.62964 12.4653 8.15652 12.9922 8.99816 12.9922C9.8398 12.9922 10.3667 12.4653 10.3667 11.6237C10.3667 10.782 9.8398 10.2551 8.99132 10.2551C8.64235 10.2551 8.49181 10.2894 8.266 10.433ZM9.16923 11.6237C9.16923 11.7468 9.12817 11.8016 9.01185 11.8153C8.84763 11.8426 8.75183 11.6921 8.82025 11.5142C8.84078 11.4526 8.92289 11.4184 9.01185 11.4321C9.12817 11.4458 9.16923 11.5005 9.16923 11.6237Z" fill="white"/>
<path d="M17.627 6.55146C17.3875 6.79095 17.4491 7.36573 17.7365 7.48205C17.8049 7.50942 18.2634 7.55732 18.7492 7.58469C20.4188 7.69417 21.8831 8.09105 23.4022 8.85058C24.627 9.46641 25.4344 10.0549 26.4814 11.1086C27.5351 12.1624 28.1304 12.9698 28.7326 14.1878C29.5058 15.7343 29.8821 17.1028 30.0053 18.7997C30.0464 19.3335 30.1011 19.833 30.1422 19.9014C30.3338 20.2504 31.018 20.1751 31.148 19.7851C31.237 19.5387 31.1549 18.136 31.0043 17.2602C30.3953 13.7704 28.3494 10.6228 25.3865 8.6453C23.3611 7.29046 21.0962 6.53093 18.8108 6.44198C17.8186 6.40092 17.7707 6.40776 17.627 6.55146Z" fill="white"/>
</svg>
