<svg width="31" height="28" viewBox="0 0 31 28" fill="none" xmlns="http://www.w3.org/2000/svg">
<path d="M12.0282 0.568636C11.4189 1.1779 11.4189 1.1779 11.5374 2.27796L11.6389 3.3611L10.9112 3.54726C8.84647 4.07191 7.18792 5.00273 5.64784 6.54281C3.70157 8.47215 2.75383 10.5538 2.4492 13.5663L2.24611 15.3771L1.24759 15.4279C0.502937 15.4618 0.181381 15.5633 0.0459886 15.7664C-0.106327 16.0203 0.0798365 16.2741 1.21375 17.4249L2.56767 18.7789H5.64784H8.728L8.77878 22.1467C8.82955 25.9039 8.88032 26.09 10.1158 26.8178C10.6743 27.1393 10.9958 27.1562 19.9148 27.1562C28.8337 27.1562 29.1553 27.1393 29.7138 26.8178C30.0353 26.6316 30.4415 26.2593 30.6446 26.0054C30.9831 25.5315 31 25.3454 31 20.2174C31 15.0894 30.9831 14.9033 30.6446 14.4294C29.9338 13.4817 29.3414 13.2786 26.9382 13.2278L24.7381 13.1601L24.4335 11.8739C24.0104 10.0292 23.1134 8.31983 21.7933 6.89821C20.1856 5.17196 18.4593 4.12268 16.2423 3.54726L15.5145 3.3611L15.5653 2.19334C15.5992 1.1102 15.5653 0.974812 15.1422 0.551712C14.7699 0.179382 14.4822 0.0947628 13.6698 0.0270672C12.6713 -0.0406284 12.6205 -0.0237045 12.0282 0.568636ZM14.0591 1.27944C14.2622 1.36406 14.3299 1.61792 14.3299 2.31181V3.2257L13.619 3.17493L12.8913 3.12416L12.8405 2.29488C12.7728 1.27944 13.179 0.940964 14.0591 1.27944ZM15.7684 4.81656C19.3055 5.71353 22.2672 8.55677 23.1303 11.84C23.2319 12.2631 23.3503 12.737 23.4011 12.8893C23.4857 13.177 23.1134 13.1939 17.3423 13.1939C10.9112 13.2109 10.3696 13.2616 9.55728 13.9894C9.37112 14.1586 9.10033 14.5479 8.96494 14.8356L8.74493 15.3941H6.20633H3.66773V14.2432C3.66773 11.7554 4.63239 9.52143 6.54481 7.60902C7.9495 6.1874 9.33727 5.35813 11.1143 4.88426C12.4851 4.51193 14.4483 4.47808 15.7684 4.81656ZM13.3144 14.8017C13.3144 15.2417 12.7051 16.291 12.0959 16.8665C11.5882 17.3573 10.5219 17.9327 10.0988 17.9327C9.99731 17.9327 9.92961 17.4588 9.92961 16.7649C9.92961 15.7495 9.98038 15.5125 10.3696 15.0725C10.7927 14.5817 10.8604 14.5479 12.062 14.5479C13.0775 14.5479 13.3144 14.5986 13.3144 14.8017ZM25.3982 15.4618C25.889 17.1542 27.3783 18.6266 29.003 19.0327L29.8153 19.2358L29.8661 20.2851C29.9169 21.2667 29.8999 21.3175 29.5107 21.3175C29.2907 21.3175 28.6306 21.5544 28.0552 21.8421C26.7352 22.5021 25.7705 23.653 25.3812 25.0577L25.1104 26.0562H19.8979H14.7022L14.5837 25.4131C14.2283 23.5176 12.4174 21.6729 10.5727 21.3852L9.92961 21.2667V20.2851V19.3035L10.6404 19.1004C12.4851 18.6096 13.9575 17.2219 14.4652 15.5464L14.753 14.5479H19.9486H25.1443L25.3982 15.4618ZM29.4599 15.0725C29.8492 15.5125 29.8999 15.7495 29.8999 16.7649C29.8999 17.4588 29.8322 17.9327 29.7307 17.9327C29.3076 17.9327 28.2414 17.3573 27.7337 16.8665C27.1752 16.3249 26.8367 15.8002 26.5151 14.971L26.3459 14.5479H27.6829C28.9691 14.5479 29.0368 14.5648 29.4599 15.0725ZM8.74493 17.0018V17.4249H5.81708C2.90615 17.4249 2.8723 17.4249 2.48305 17.0018L2.09379 16.5787H5.4109H8.74493V17.0018ZM10.9112 22.7729C11.6897 23.0945 12.5698 23.9238 12.9929 24.7361C13.5344 25.8023 13.4837 25.8869 12.062 25.8869C10.8604 25.8869 10.7927 25.8531 10.3696 25.3623C9.98038 24.9223 9.92961 24.6853 9.92961 23.6699C9.92961 22.976 9.99731 22.5021 10.0988 22.5021C10.2004 22.5021 10.5558 22.6206 10.9112 22.7729ZM29.8999 23.6699C29.8999 24.6853 29.8492 24.9223 29.4599 25.3623C29.0368 25.87 28.9691 25.8869 27.6998 25.8869H26.3797L26.5659 25.2777C26.8198 24.4653 27.9537 23.196 28.7999 22.8237C29.8661 22.3329 29.8999 22.3668 29.8999 23.6699Z" fill="white"/>
<path d="M7.35798 7.76239C5.95329 9.06554 4.49783 11.8242 4.76861 12.7042C4.93785 13.2119 5.66558 13.1273 5.8856 12.5519C6.64718 10.6733 7.27336 9.64096 8.22111 8.72706C9.28732 7.72854 9.40579 7.49161 9.05038 7.1362C8.67806 6.76387 8.27188 6.91619 7.35798 7.76239Z" fill="white"/>
<path d="M19.2387 15.7843C19.2387 16.2751 19.171 16.3597 18.5279 16.5797C18.054 16.7489 17.6648 17.0366 17.4109 17.4259C16.5816 18.6444 17.2924 20.4891 18.6802 20.743C19.2387 20.8445 19.2387 20.8445 19.2387 21.8431C19.2387 22.8077 19.2218 22.8416 18.9002 22.6723C18.6971 22.5708 18.4602 22.3 18.3586 22.0631C18.2063 21.7584 18.0371 21.6569 17.5971 21.6569C17.1232 21.6569 17.0386 21.7246 17.0386 22.0631C17.0386 22.7231 17.7494 23.5862 18.5279 23.857C19.171 24.077 19.2387 24.1616 19.2387 24.6524C19.2387 25.194 19.2556 25.2109 19.9157 25.2109C20.5757 25.2109 20.5926 25.194 20.5926 24.6524C20.5926 24.1616 20.6603 24.077 21.3034 23.857C22.1665 23.5524 22.7927 22.7062 22.7927 21.8769C22.7927 20.8445 22.065 19.863 21.1511 19.6937L20.5926 19.5922V18.5936C20.5926 17.629 20.6095 17.5951 20.9311 17.7644C21.1342 17.8659 21.3711 18.1367 21.4727 18.3736C21.625 18.6783 21.7942 18.7798 22.2342 18.7798C22.7081 18.7798 22.7927 18.7121 22.7927 18.3736C22.7927 17.7136 22.0819 16.8505 21.3034 16.5797C20.6603 16.3597 20.5926 16.2751 20.5926 15.7843C20.5926 15.2427 20.5757 15.2258 19.9157 15.2258C19.2556 15.2258 19.2387 15.2427 19.2387 15.7843ZM19.2387 18.6106C19.2387 19.1691 19.171 19.626 19.0695 19.626C18.7987 19.626 18.2233 18.9829 18.2233 18.6952C18.2233 18.4413 18.9341 17.5951 19.1541 17.5951C19.2048 17.5951 19.2387 18.0521 19.2387 18.6106ZM21.2696 21.1492C21.4557 21.3353 21.6081 21.5723 21.6081 21.6738C21.6081 21.9954 21.2696 22.4862 20.9311 22.6723C20.6095 22.8416 20.5926 22.7908 20.5926 21.8261C20.5926 20.743 20.728 20.6076 21.2696 21.1492Z" fill="white"/>
</svg>
