<svg width="22" height="22" viewBox="0 0 22 22" fill="none" xmlns="http://www.w3.org/2000/svg">
<path d="M9.00912 21.7895L8.5709 18.2886C8.18434 18.1716 7.76671 17.9884 7.31801 17.7391C6.8685 17.4889 6.48597 17.2209 6.17043 16.9353L2.94196 18.3092L0.684326 14.375L3.47459 12.2711C3.43908 12.0516 3.40962 11.8256 3.38622 11.5932C3.36362 11.3616 3.35233 11.1364 3.35233 10.9177C3.35233 10.7144 3.36362 10.5005 3.38622 10.2762C3.40882 10.0518 3.43827 9.79921 3.47459 9.51837L0.684326 7.41447L2.94196 3.52626L6.14743 4.87842C6.50898 4.5774 6.90038 4.30584 7.32164 4.06374C7.74129 3.82163 8.15004 3.6344 8.5479 3.50205L9.0079 0H13.5244L13.9626 3.52505C14.4266 3.68726 14.8366 3.87409 15.1925 4.08553C15.5492 4.29697 15.916 4.56086 16.2929 4.87721L19.5915 3.52626L21.8492 7.41447L18.9657 9.58858C19.0319 9.83875 19.069 10.0679 19.0771 10.2762C19.0851 10.486 19.0892 10.6922 19.0892 10.8947C19.0892 11.0828 19.0811 11.2809 19.065 11.4891C19.0496 11.6981 19.0141 11.9507 18.9584 12.2469L21.7959 14.375L19.5383 18.3092L16.2929 16.9123C15.916 17.2286 15.5367 17.5002 15.155 17.7269C14.7724 17.9537 14.375 18.1329 13.9626 18.2644L13.5244 21.7895H9.00912ZM11.2341 13.9211C12.0782 13.9211 12.7936 13.6277 13.3803 13.041C13.967 12.4543 14.2604 11.7389 14.2604 10.8947C14.2604 10.0506 13.967 9.33518 13.3803 8.74847C12.7936 8.16177 12.0782 7.86842 11.2341 7.86842C10.3851 7.86842 9.66845 8.16177 9.08417 8.74847C8.49989 9.33518 8.20775 10.0506 8.20775 10.8947C8.20775 11.7389 8.49989 12.4543 9.08417 13.041C9.66845 13.6277 10.3851 13.9211 11.2341 13.9211Z" fill="white"/>
</svg>
